<svg width="21" height="25" viewBox="0 0 21 25" fill="none" xmlns="http://www.w3.org/2000/svg">
<path fill-rule="evenodd" clip-rule="evenodd" d="M2.93486 6.45213C2.93486 9.94159 5.76117 12.7679 9.25064 12.7679C12.7401 12.7679 15.5664 9.94159 15.5664 6.45213C15.5664 2.96266 12.7401 0.136353 9.25064 0.136353C5.76117 0.136353 2.93486 2.96266 2.93486 6.45213ZM11.3559 18.2858V16.0858V16.0847C8.8337 15.4335 6.15212 15.9862 4.09297 17.5816C2.03382 19.177 0.828928 21.6356 0.82959 24.2405L2.93485 24.2415C2.93446 22.191 3.92958 20.2679 5.60372 19.0839C7.27786 17.8998 9.42262 17.6023 11.3559 18.2858ZM9.25054 10.6627C11.5769 10.6627 13.4611 8.77845 13.4611 6.45214C13.4611 4.12583 11.5769 2.24162 9.25054 2.24162C6.92423 2.24162 5.04002 4.12583 5.04002 6.45214C5.04002 8.77845 6.92423 10.6627 9.25054 10.6627ZM15.5665 15.8205V18.9784H12.4086V21.0837H15.5665V24.2416H17.6717V21.0837H20.8296V18.9784H17.6717V15.8205H15.5665Z" fill="#6D7587"/>
</svg>
