<svg width="25" height="25" viewBox="0 0 25 25" fill="none" xmlns="http://www.w3.org/2000/svg">
<path d="M18.284 0.683121C19.2023 1.62281 19.2744 2.93106 18.284 4.07981L10.5689 12.5026L18.284 20.9253C19.2744 22.074 19.2023 23.3844 18.284 24.3177C17.3677 25.2574 15.8194 25.197 14.9587 24.3177C14.098 23.4426 5.68911 14.1987 5.68911 14.1987C5.47116 13.9786 5.29781 13.7148 5.17942 13.423C5.06102 13.1312 5 12.8174 5 12.5004C5 12.1834 5.06102 11.8696 5.17942 11.5778C5.29781 11.286 5.47116 11.0222 5.68911 10.8021C5.68911 10.8021 14.098 1.56247 14.9587 0.683121C15.8194 -0.198379 17.3677 -0.256571 18.284 0.683121V0.683121Z" fill="#6D7587"/>
</svg>
