<svg width="152" height="177" viewBox="0 0 152 177" fill="none" >
<g filter="url(#filter0_ddii)">
<path  fill="#BA0606" d="M124 100.311C124 125.792 102.957 146.448 77 146.448C51.0426 146.448 30 125.792 30 100.311C30 74.83 51.0426 54.1737 77 54.1737C102.957 54.1737 124 74.83 124 100.311Z"/>
<g style="mix-blend-mode:difference">
<path d="M61.2463 97.6398C60.6303 97.6398 60.0383 97.5398 59.4703 97.3398C58.9103 97.1398 58.4863 96.8838 58.1983 96.5718L58.6303 95.8758C58.9103 96.1798 59.2983 96.4238 59.7943 96.6078C60.2903 96.7918 60.8023 96.8838 61.3303 96.8838C62.0743 96.8838 62.6703 96.7398 63.1183 96.4518C63.5743 96.1558 63.8023 95.7478 63.8023 95.2278C63.8023 94.9478 63.7183 94.7198 63.5503 94.5438C63.3823 94.3678 63.1703 94.2278 62.9143 94.1238C62.6583 94.0118 62.3103 93.8918 61.8703 93.7638C61.3503 93.6118 60.9263 93.4678 60.5983 93.3318C60.2783 93.1878 60.0023 92.9798 59.7703 92.7078C59.5463 92.4278 59.4343 92.0678 59.4343 91.6278C59.4343 91.1078 59.5743 90.6598 59.8543 90.2838C60.1423 89.8998 60.5383 89.6078 61.0423 89.4078C61.5543 89.1998 62.1383 89.0958 62.7943 89.0958C63.2983 89.0958 63.7783 89.1598 64.2343 89.2878C64.6903 89.4078 65.0783 89.5838 65.3983 89.8158L65.0263 90.5358C64.7223 90.3118 64.3743 90.1438 63.9823 90.0318C63.5903 89.9118 63.1783 89.8518 62.7463 89.8518C62.0103 89.8518 61.4183 90.0038 60.9703 90.3078C60.5223 90.6118 60.2983 91.0238 60.2983 91.5438C60.2983 91.8318 60.3863 92.0678 60.5623 92.2518C60.7383 92.4358 60.9543 92.5838 61.2103 92.6958C61.4743 92.7998 61.8263 92.9158 62.2663 93.0438C62.7863 93.1958 63.2063 93.3438 63.5263 93.4878C63.8463 93.6238 64.1183 93.8238 64.3423 94.0878C64.5663 94.3438 64.6783 94.6838 64.6783 95.1078C64.6783 95.6358 64.5303 96.0918 64.2343 96.4758C63.9463 96.8518 63.5423 97.1398 63.0223 97.3398C62.5103 97.5398 61.9183 97.6398 61.2463 97.6398ZM66.7932 94.6518C66.7852 94.7078 66.7812 94.7918 66.7812 94.9038C66.7812 95.5438 66.9612 96.0318 67.3212 96.3678C67.6892 96.7038 68.2332 96.8718 68.9532 96.8718C69.3692 96.8718 69.7572 96.8038 70.1172 96.6678C70.4852 96.5238 70.7852 96.3278 71.0172 96.0798L71.4012 96.6918C71.1052 96.9878 70.7332 97.2198 70.2852 97.3878C69.8452 97.5478 69.3772 97.6278 68.8812 97.6278C67.9692 97.6278 67.2492 97.3878 66.7212 96.9078C66.2012 96.4278 65.9412 95.7718 65.9412 94.9398C65.9412 94.2358 66.0892 93.5998 66.3852 93.0318C66.6892 92.4638 67.1052 92.0198 67.6332 91.6998C68.1692 91.3718 68.7692 91.2078 69.4332 91.2078C70.2732 91.2078 70.9412 91.4478 71.4372 91.9278C71.9332 92.3998 72.1812 93.0518 72.1812 93.8838C72.1812 94.1158 72.1532 94.3718 72.0972 94.6518H66.7932ZM69.4092 91.9278C68.7772 91.9278 68.2372 92.1158 67.7892 92.4918C67.3412 92.8678 67.0372 93.3758 66.8772 94.0158H71.3772C71.3852 93.9598 71.3892 93.8838 71.3892 93.7878C71.3892 93.1958 71.2092 92.7398 70.8492 92.4198C70.4892 92.0918 70.0092 91.9278 69.4092 91.9278ZM75.0193 88.6638H75.8713L74.0953 97.5678H73.2433L75.0193 88.6638ZM77.258 94.6518C77.25 94.7078 77.246 94.7918 77.246 94.9038C77.246 95.5438 77.426 96.0318 77.786 96.3678C78.154 96.7038 78.698 96.8718 79.418 96.8718C79.834 96.8718 80.222 96.8038 80.582 96.6678C80.95 96.5238 81.25 96.3278 81.482 96.0798L81.866 96.6918C81.57 96.9878 81.198 97.2198 80.75 97.3878C80.31 97.5478 79.842 97.6278 79.346 97.6278C78.434 97.6278 77.714 97.3878 77.186 96.9078C76.666 96.4278 76.406 95.7718 76.406 94.9398C76.406 94.2358 76.554 93.5998 76.85 93.0318C77.154 92.4638 77.57 92.0198 78.098 91.6998C78.634 91.3718 79.234 91.2078 79.898 91.2078C80.738 91.2078 81.406 91.4478 81.902 91.9278C82.398 92.3998 82.646 93.0518 82.646 93.8838C82.646 94.1158 82.618 94.3718 82.562 94.6518H77.258ZM79.874 91.9278C79.242 91.9278 78.702 92.1158 78.254 92.4918C77.806 92.8678 77.502 93.3758 77.342 94.0158H81.842C81.85 93.9598 81.854 93.8838 81.854 93.7878C81.854 93.1958 81.674 92.7398 81.314 92.4198C80.954 92.0918 80.474 91.9278 79.874 91.9278ZM86.5642 97.6278C85.9722 97.6278 85.4562 97.5198 85.0162 97.3038C84.5762 97.0798 84.2362 96.7678 83.9962 96.3678C83.7642 95.9598 83.6482 95.4878 83.6482 94.9518C83.6482 94.2398 83.8042 93.5998 84.1162 93.0318C84.4282 92.4638 84.8642 92.0198 85.4242 91.6998C85.9842 91.3718 86.6162 91.2078 87.3202 91.2078C87.9042 91.2078 88.4042 91.3158 88.8202 91.5318C89.2442 91.7398 89.5722 92.0518 89.8042 92.4678L89.0842 92.8878C88.7242 92.2638 88.1122 91.9518 87.2482 91.9518C86.7282 91.9518 86.2562 92.0798 85.8322 92.3358C85.4162 92.5918 85.0882 92.9438 84.8482 93.3918C84.6162 93.8398 84.5002 94.3478 84.5002 94.9158C84.5002 95.5318 84.6802 96.0118 85.0402 96.3558C85.4082 96.6998 85.9282 96.8718 86.6002 96.8718C87.0082 96.8718 87.3842 96.7958 87.7282 96.6438C88.0802 96.4838 88.3682 96.2558 88.5922 95.9598L89.2042 96.4278C88.9242 96.8038 88.5482 97.0998 88.0762 97.3158C87.6122 97.5238 87.1082 97.6278 86.5642 97.6278ZM91.9082 95.6598C91.8762 95.8518 91.8602 95.9838 91.8602 96.0558C91.8602 96.6158 92.1642 96.8958 92.7722 96.8958C93.1322 96.8958 93.4562 96.7878 93.7442 96.5718L93.9482 97.2198C93.5882 97.4918 93.1202 97.6278 92.5442 97.6278C92.0722 97.6278 91.6962 97.4998 91.4162 97.2438C91.1442 96.9878 91.0082 96.6358 91.0082 96.1878C91.0082 96.0118 91.0242 95.8478 91.0562 95.6958L91.7882 91.9758H90.6722L90.8042 91.2558H91.9322L92.2082 89.8758H93.0602L92.7842 91.2558H94.7042L94.5602 91.9758H92.6402L91.9082 95.6598ZM61.3928 110.64C60.5768 110.64 59.8728 110.496 59.2808 110.208C58.6888 109.912 58.2368 109.504 57.9248 108.984C57.6208 108.456 57.4688 107.844 57.4688 107.148C57.4688 106.22 57.6768 105.372 58.0928 104.604C58.5168 103.836 59.1168 103.228 59.8928 102.78C60.6688 102.324 61.5648 102.096 62.5808 102.096C63.2528 102.096 63.8488 102.204 64.3688 102.42C64.8888 102.628 65.2888 102.928 65.5688 103.32L64.9448 103.872C64.4088 103.216 63.5968 102.888 62.5088 102.888C61.6848 102.888 60.9568 103.08 60.3248 103.464C59.6928 103.84 59.2048 104.348 58.8608 104.988C58.5168 105.628 58.3448 106.332 58.3448 107.1C58.3448 107.94 58.6128 108.608 59.1488 109.104C59.6928 109.6 60.4648 109.848 61.4648 109.848C62.5608 109.848 63.4488 109.516 64.1288 108.852L64.6448 109.44C64.2768 109.824 63.8088 110.12 63.2408 110.328C62.6728 110.536 62.0568 110.64 61.3928 110.64ZM68.4166 110.628C67.8406 110.628 67.3366 110.52 66.9046 110.304C66.4726 110.08 66.1366 109.768 65.8966 109.368C65.6646 108.96 65.5486 108.488 65.5486 107.952C65.5486 107.24 65.7046 106.6 66.0166 106.032C66.3286 105.464 66.7606 105.02 67.3126 104.7C67.8726 104.372 68.5006 104.208 69.1966 104.208C70.0766 104.208 70.7726 104.448 71.2846 104.928C71.8046 105.408 72.0646 106.056 72.0646 106.872C72.0646 107.584 71.9086 108.228 71.5966 108.804C71.2846 109.372 70.8486 109.82 70.2886 110.148C69.7366 110.468 69.1126 110.628 68.4166 110.628ZM68.4766 109.872C68.9966 109.872 69.4646 109.748 69.8806 109.5C70.2966 109.244 70.6206 108.892 70.8526 108.444C71.0926 107.988 71.2126 107.48 71.2126 106.92C71.2126 106.304 71.0286 105.824 70.6606 105.48C70.3006 105.128 69.7926 104.952 69.1366 104.952C68.6166 104.952 68.1486 105.08 67.7326 105.336C67.3166 105.592 66.9886 105.948 66.7486 106.404C66.5166 106.852 66.4006 107.356 66.4006 107.916C66.4006 108.532 66.5806 109.012 66.9406 109.356C67.3086 109.7 67.8206 109.872 68.4766 109.872ZM74.908 101.664H75.76L73.984 110.568H73.132L74.908 101.664ZM79.1627 110.628C78.5867 110.628 78.0827 110.52 77.6507 110.304C77.2187 110.08 76.8827 109.768 76.6427 109.368C76.4107 108.96 76.2947 108.488 76.2947 107.952C76.2947 107.24 76.4507 106.6 76.7627 106.032C77.0747 105.464 77.5067 105.02 78.0587 104.7C78.6187 104.372 79.2467 104.208 79.9427 104.208C80.8227 104.208 81.5187 104.448 82.0307 104.928C82.5507 105.408 82.8107 106.056 82.8107 106.872C82.8107 107.584 82.6547 108.228 82.3427 108.804C82.0307 109.372 81.5947 109.82 81.0347 110.148C80.4827 110.468 79.8587 110.628 79.1627 110.628ZM79.2227 109.872C79.7427 109.872 80.2107 109.748 80.6267 109.5C81.0427 109.244 81.3667 108.892 81.5987 108.444C81.8387 107.988 81.9587 107.48 81.9587 106.92C81.9587 106.304 81.7747 105.824 81.4067 105.48C81.0467 105.128 80.5387 104.952 79.8827 104.952C79.3627 104.952 78.8947 105.08 78.4787 105.336C78.0627 105.592 77.7347 105.948 77.4947 106.404C77.2627 106.852 77.1467 107.356 77.1467 107.916C77.1467 108.532 77.3267 109.012 77.6867 109.356C78.0547 109.7 78.5667 109.872 79.2227 109.872ZM90.8261 104.256L89.5661 110.568H88.7501L88.9541 109.56C88.3621 110.272 87.5501 110.628 86.5181 110.628C85.8141 110.628 85.2621 110.448 84.8621 110.088C84.4701 109.72 84.2741 109.212 84.2741 108.564C84.2741 108.34 84.2981 108.104 84.3461 107.856L85.0661 104.256H85.9181L85.1981 107.856C85.1581 108.08 85.1381 108.268 85.1381 108.42C85.1381 108.884 85.2701 109.24 85.5341 109.488C85.8061 109.736 86.2101 109.86 86.7461 109.86C87.4181 109.86 87.9741 109.672 88.4141 109.296C88.8541 108.92 89.1501 108.372 89.3021 107.652L89.9741 104.256H90.8261ZM93.8003 105.408C94.0803 105 94.4323 104.7 94.8563 104.508C95.2803 104.308 95.7923 104.208 96.3923 104.208L96.2363 105.036L95.9963 105.024C95.3163 105.024 94.7563 105.22 94.3163 105.612C93.8843 106.004 93.5923 106.588 93.4403 107.364L92.8043 110.568H91.9523L93.2003 104.256H94.0163L93.8003 105.408Z" fill="#EBECF0"/>
</g>
</g>
<path fill-rule="evenodd" clip-rule="evenodd" d="M77 141.835C100.362 141.835 119.3 123.244 119.3 100.311C119.3 77.3781 100.362 58.7874 77 58.7874C53.6384 58.7874 34.7 77.3781 34.7 100.311C34.7 123.244 53.6384 141.835 77 141.835ZM77 146.448C102.957 146.448 124 125.792 124 100.311C124 74.83 102.957 54.1737 77 54.1737C51.0426 54.1737 30 74.83 30 100.311C30 125.792 51.0426 146.448 77 146.448Z" fill="#222629"/>
<path fill-rule="evenodd" clip-rule="evenodd" d="M76.9999 83.0471C73.1063 83.0471 69.95 79.9487 69.95 76.1266V6.9206C69.95 3.09846 73.1063 0 76.9999 0C80.8936 0 84.0499 3.09846 84.0499 6.9206V76.1266C84.0499 79.9487 80.8936 83.0471 76.9999 83.0471Z" fill="#222629"/>
<defs>
<filter id="filter0_ddii" x="0" y="24.1737" width="154" height="152.275" filterUnits="userSpaceOnUse" color-interpolation-filters="sRGB">
<feFlood flood-opacity="0" result="BackgroundImageFix"/>
<feColorMatrix in="SourceAlpha" type="matrix" values="0 0 0 0 0 0 0 0 0 0 0 0 0 0 0 0 0 0 127 0"/>
<feOffset dx="10" dy="10"/>
<feGaussianBlur stdDeviation="10"/>
<feColorMatrix type="matrix" values="0 0 0 0 0.606458 0 0 0 0 0.621833 0 0 0 0 0.683333 0 0 0 1 0"/>
<feBlend mode="normal" in2="BackgroundImageFix" result="effect1_dropShadow"/>
<feColorMatrix in="SourceAlpha" type="matrix" values="0 0 0 0 0 0 0 0 0 0 0 0 0 0 0 0 0 0 127 0"/>
<feOffset dx="-10" dy="-10"/>
<feGaussianBlur stdDeviation="10"/>
<feColorMatrix type="matrix" values="0 0 0 0 0.979167 0 0 0 0 0.983333 0 0 0 0 1 0 0 0 1 0"/>
<feBlend mode="normal" in2="effect1_dropShadow" result="effect2_dropShadow"/>
<feBlend mode="normal" in="SourceGraphic" in2="effect2_dropShadow" result="shape"/>
<feColorMatrix in="SourceAlpha" type="matrix" values="0 0 0 0 0 0 0 0 0 0 0 0 0 0 0 0 0 0 127 0" result="hardAlpha"/>
<feOffset dx="-10" dy="-10"/>
<feGaussianBlur stdDeviation="12.5"/>
<feComposite in2="hardAlpha" operator="arithmetic" k2="-1" k3="1"/>
<feColorMatrix type="matrix" values="0 0 0 0 0 0 0 0 0 0 0 0 0 0 0 0 0 0 0.25 0"/>
<feBlend mode="normal" in2="shape" result="effect3_innerShadow"/>
<feColorMatrix in="SourceAlpha" type="matrix" values="0 0 0 0 0 0 0 0 0 0 0 0 0 0 0 0 0 0 127 0" result="hardAlpha"/>
<feOffset dx="10" dy="10"/>
<feGaussianBlur stdDeviation="12.5"/>
<feComposite in2="hardAlpha" operator="arithmetic" k2="-1" k3="1"/>
<feColorMatrix type="matrix" values="0 0 0 0 1 0 0 0 0 1 0 0 0 0 1 0 0 0 0.25 0"/>
<feBlend mode="normal" in2="effect3_innerShadow" result="effect4_innerShadow"/>
</filter>
</defs>
</svg>
