<svg width="15" height="15" viewBox="0 0 15 15" fill="none" xmlns="http://www.w3.org/2000/svg">
<path d="M7.29685 4.5C8.0925 4.5 8.85557 4.81607 9.41818 5.37868C9.98078 5.94129 10.2969 6.70435 10.2969 7.5C10.2969 8.29565 9.98078 9.05871 9.41818 9.62132C8.85557 10.1839 8.0925 10.5 7.29685 10.5C6.50121 10.5 5.73814 10.1839 5.17554 9.62132C4.61293 9.05871 4.29686 8.29565 4.29686 7.5C4.29686 6.70435 4.61293 5.94129 5.17554 5.37868C5.73814 4.81607 6.50121 4.5 7.29685 4.5ZM7.29685 6C6.89903 6 6.5175 6.15804 6.2362 6.43934C5.95489 6.72064 5.79686 7.10218 5.79686 7.5C5.79686 7.89782 5.95489 8.27936 6.2362 8.56066C6.5175 8.84196 6.89903 9 7.29685 9C7.69468 9 8.07621 8.84196 8.35752 8.56066C8.63882 8.27936 8.79685 7.89782 8.79685 7.5C8.79685 7.10218 8.63882 6.72064 8.35752 6.43934C8.07621 6.15804 7.69468 6 7.29685 6ZM5.79686 15C5.60936 15 5.45186 14.865 5.42186 14.685L5.14436 12.6975C4.67186 12.51 4.26686 12.255 3.87686 11.955L2.00936 12.7125C1.84436 12.7725 1.64186 12.7125 1.55186 12.5475L0.0518554 9.9525C0.00595212 9.87522 -0.0102305 9.78387 0.00633389 9.69553C0.0228983 9.60718 0.0710753 9.5279 0.141856 9.4725L1.72436 8.2275L1.67186 7.5L1.72436 6.75L0.141856 5.5275C0.0710753 5.4721 0.0228983 5.39282 0.00633389 5.30447C-0.0102305 5.21613 0.00595212 5.12478 0.0518554 5.0475L1.55186 2.4525C1.64186 2.2875 1.84436 2.22 2.00936 2.2875L3.87686 3.0375C4.26686 2.745 4.67186 2.49 5.14436 2.3025L5.42186 0.315C5.45186 0.135 5.60936 0 5.79686 0H8.79685C8.98435 0 9.14186 0.135 9.17185 0.315L9.44936 2.3025C9.92185 2.49 10.3269 2.745 10.7169 3.0375L12.5844 2.2875C12.7494 2.22 12.9519 2.2875 13.0419 2.4525L14.5419 5.0475C14.6394 5.2125 14.5944 5.415 14.4519 5.5275L12.8694 6.75L12.9219 7.5L12.8694 8.25L14.4519 9.4725C14.5944 9.585 14.6394 9.7875 14.5419 9.9525L13.0419 12.5475C12.9519 12.7125 12.7494 12.78 12.5844 12.7125L10.7169 11.9625C10.3269 12.255 9.92185 12.51 9.44936 12.6975L9.17185 14.685C9.14186 14.865 8.98435 15 8.79685 15H5.79686ZM6.73435 1.5L6.45686 3.4575C5.55686 3.645 4.76186 4.125 4.18436 4.7925L2.37686 4.0125L1.81436 4.9875L3.39686 6.15C3.09686 7.025 3.09686 7.975 3.39686 8.85L1.80686 10.02L2.36936 10.995L4.19186 10.215C4.76936 10.875 5.55686 11.355 6.44936 11.535L6.72686 13.5H7.86686L8.14436 11.5425C9.03686 11.355 9.82436 10.875 10.4019 10.215L12.2244 10.995L12.7869 10.02L11.1969 8.8575C11.4969 7.98 11.4969 7.0275 11.1969 6.15L12.7794 4.9875L12.2169 4.0125L10.4094 4.7925C9.82002 4.11024 9.02061 3.64326 8.13686 3.465L7.85935 1.5H6.73435Z" fill="#6D7587"/>
</svg>
