<svg width="25" height="25" viewBox="0 0 25 25" fill="none" xmlns="http://www.w3.org/2000/svg">
<rect x="1" y="1" width="23" height="23" rx="2" fill="url(#paint0_linear)" stroke="white" stroke-width="2"/>
<g filter="url(#filter0_ddi)">
<path d="M12.5812 12.2533C13.5246 11.8887 13.2416 10.6128 12.5812 10.0659C11.5434 9.2457 10.034 9.70139 9.37357 10.795C7.95845 12.9824 10.2226 15.352 12.5812 15.2608C15.1284 15.0785 16.6379 12.6178 16.0718 10.3394C15.4114 7.60521 12.3925 6.23814 9.75094 7.05838C7.29806 7.78749 5.78859 10.2482 5.97728 12.7089C6.2603 15.4431 8.43016 17.6304 11.1661 18.0861C13.8076 18.5418 16.5435 17.357 17.9587 15.1697C18.619 14.1672 19.0908 12.9824 19.0908 11.7064C19.0908 11.2507 19.5625 10.795 20.1285 10.8862C20.8832 10.8862 21.0719 11.6153 20.9776 12.1621C20.6002 16.4456 16.7322 20 12.2038 20C6.63767 20 2.29795 14.3494 4.65649 9.2457C7.01503 4.32424 14.3737 3.32172 17.2039 8.15204C18.619 10.4305 18.336 13.4381 16.3548 15.352C14.468 17.1747 11.3547 17.5393 9.09055 15.9899C7.01503 14.5317 6.35464 11.5242 8.05279 9.42797C9.6566 7.3318 13.2416 7.24066 14.6567 9.61025C15.6945 11.3419 14.6567 14.3494 12.2982 14.076C10.7887 14.076 9.46791 12.5267 10.317 11.1596C10.883 10.3394 12.1095 10.6128 12.4868 11.2507C12.6755 11.9798 12.5812 12.2533 12.5812 12.2533Z" fill="#C4C4C4"/>
</g>
<defs>
<filter id="filter0_ddi" x="0" y="1" width="25" height="23" filterUnits="userSpaceOnUse" color-interpolation-filters="sRGB">
<feFlood flood-opacity="0" result="BackgroundImageFix"/>
<feColorMatrix in="SourceAlpha" type="matrix" values="0 0 0 0 0 0 0 0 0 0 0 0 0 0 0 0 0 0 127 0"/>
<feOffset dx="-1" dy="-1"/>
<feGaussianBlur stdDeviation="1.5"/>
<feColorMatrix type="matrix" values="0 0 0 0 0 0 0 0 0 0 0 0 0 0 0 0 0 0 0.6 0"/>
<feBlend mode="normal" in2="BackgroundImageFix" result="effect1_dropShadow"/>
<feColorMatrix in="SourceAlpha" type="matrix" values="0 0 0 0 0 0 0 0 0 0 0 0 0 0 0 0 0 0 127 0"/>
<feOffset dx="1" dy="1"/>
<feGaussianBlur stdDeviation="1.5"/>
<feColorMatrix type="matrix" values="0 0 0 0 1 0 0 0 0 1 0 0 0 0 1 0 0 0 0.35 0"/>
<feBlend mode="normal" in2="effect1_dropShadow" result="effect2_dropShadow"/>
<feBlend mode="normal" in="SourceGraphic" in2="effect2_dropShadow" result="shape"/>
<feColorMatrix in="SourceAlpha" type="matrix" values="0 0 0 0 0 0 0 0 0 0 0 0 0 0 0 0 0 0 127 0" result="hardAlpha"/>
<feOffset dx="1" dy="1"/>
<feGaussianBlur stdDeviation="1"/>
<feComposite in2="hardAlpha" operator="arithmetic" k2="-1" k3="1"/>
<feColorMatrix type="matrix" values="0 0 0 0 0 0 0 0 0 0 0 0 0 0 0 0 0 0 0.35 0"/>
<feBlend mode="normal" in2="shape" result="effect3_innerShadow"/>
</filter>
<linearGradient id="paint0_linear" x1="0" y1="0" x2="25" y2="25" gradientUnits="userSpaceOnUse">
<stop stop-color="#3F5CC4"/>
<stop offset="1" stop-color="#000824"/>
</linearGradient>
</defs>
</svg>
