<svg viewBox="0 0 94 147">
<g filter="url(#filter0_ii)">
<path class="select-color-input" id="tankColor" d="M94 100.311C94 125.792 72.9574 146.448 47 146.448C21.0426 146.448 0 125.792 0 100.311C0 74.83 21.0426 54.1737 47 54.1737C72.9574 54.1737 94 74.83 94 100.311Z" fill="#BA0606"/>
<g style="mix-blend-mode:difference">
<path class="select-color-input" d="M30.9774 97.6638C30.3534 97.6638 29.7494 97.5678 29.1654 97.3758C28.5894 97.1838 28.1454 96.9398 27.8334 96.6438L28.3614 95.6838C28.6814 95.9798 29.0854 96.2158 29.5734 96.3918C30.0614 96.5598 30.5654 96.6438 31.0854 96.6438C31.7734 96.6438 32.3214 96.5198 32.7294 96.2718C33.1454 96.0158 33.3534 95.6638 33.3534 95.2158C33.3534 94.9758 33.2734 94.7758 33.1134 94.6158C32.9534 94.4558 32.7574 94.3278 32.5254 94.2318C32.2934 94.1358 31.9654 94.0238 31.5414 93.8958C31.0054 93.7358 30.5734 93.5838 30.2454 93.4398C29.9174 93.2958 29.6334 93.0838 29.3934 92.8038C29.1614 92.5158 29.0454 92.1398 29.0454 91.6758C29.0454 91.1478 29.1934 90.6878 29.4894 90.2958C29.7854 89.9038 30.1974 89.6038 30.7254 89.3958C31.2534 89.1798 31.8574 89.0718 32.5374 89.0718C33.0574 89.0718 33.5494 89.1358 34.0134 89.2638C34.4854 89.3838 34.8934 89.5558 35.2374 89.7798L34.7574 90.7638C34.4454 90.5398 34.0934 90.3718 33.7014 90.2598C33.3174 90.1478 32.9094 90.0918 32.4774 90.0918C31.7894 90.0918 31.2414 90.2278 30.8334 90.4998C30.4254 90.7638 30.2214 91.1198 30.2214 91.5678C30.2214 91.8158 30.3014 92.0238 30.4614 92.1918C30.6294 92.3598 30.8334 92.4918 31.0734 92.5878C31.3214 92.6838 31.6574 92.7958 32.0814 92.9238C32.6094 93.0838 33.0334 93.2358 33.3534 93.3798C33.6814 93.5158 33.9574 93.7198 34.1814 93.9918C34.4134 94.2638 34.5294 94.6158 34.5294 95.0478C34.5294 95.5838 34.3774 96.0478 34.0734 96.4398C33.7774 96.8318 33.3614 97.1358 32.8254 97.3518C32.2894 97.5598 31.6734 97.6638 30.9774 97.6638ZM36.7985 94.7478V94.8198C36.7985 95.4118 36.9665 95.8638 37.3025 96.1758C37.6385 96.4798 38.1425 96.6318 38.8145 96.6318C39.2065 96.6318 39.5745 96.5678 39.9185 96.4398C40.2625 96.3038 40.5505 96.1238 40.7825 95.8998L41.2745 96.7278C40.9625 97.0158 40.5825 97.2398 40.1345 97.3998C39.6865 97.5598 39.2145 97.6398 38.7185 97.6398C38.0945 97.6398 37.5545 97.5278 37.0985 97.3038C36.6425 97.0798 36.2905 96.7598 36.0425 96.3438C35.7945 95.9278 35.6705 95.4398 35.6705 94.8798C35.6705 94.1678 35.8225 93.5278 36.1265 92.9598C36.4385 92.3918 36.8665 91.9478 37.4105 91.6278C37.9625 91.3078 38.5785 91.1478 39.2585 91.1478C40.1225 91.1478 40.8105 91.3958 41.3225 91.8918C41.8425 92.3798 42.1025 93.0478 42.1025 93.8958C42.1025 94.1518 42.0745 94.4358 42.0185 94.7478H36.7985ZM39.2105 92.1078C38.6425 92.1078 38.1545 92.2678 37.7465 92.5878C37.3385 92.9078 37.0625 93.3478 36.9185 93.9078H41.0225C41.0545 93.3398 40.9025 92.8998 40.5665 92.5878C40.2385 92.2678 39.7865 92.1078 39.2105 92.1078ZM44.7944 88.6638H45.9464L44.1704 97.5678H43.0184L44.7944 88.6638ZM47.486 94.7478V94.8198C47.486 95.4118 47.654 95.8638 47.99 96.1758C48.326 96.4798 48.83 96.6318 49.502 96.6318C49.894 96.6318 50.262 96.5678 50.606 96.4398C50.95 96.3038 51.238 96.1238 51.47 95.8998L51.962 96.7278C51.65 97.0158 51.27 97.2398 50.822 97.3998C50.374 97.5598 49.902 97.6398 49.406 97.6398C48.782 97.6398 48.242 97.5278 47.786 97.3038C47.33 97.0798 46.978 96.7598 46.73 96.3438C46.482 95.9278 46.358 95.4398 46.358 94.8798C46.358 94.1678 46.51 93.5278 46.814 92.9598C47.126 92.3918 47.554 91.9478 48.098 91.6278C48.65 91.3078 49.266 91.1478 49.946 91.1478C50.81 91.1478 51.498 91.3958 52.01 91.8918C52.53 92.3798 52.79 93.0478 52.79 93.8958C52.79 94.1518 52.762 94.4358 52.706 94.7478H47.486ZM49.898 92.1078C49.33 92.1078 48.842 92.2678 48.434 92.5878C48.026 92.9078 47.75 93.3478 47.606 93.9078H51.71C51.742 93.3398 51.59 92.8998 51.254 92.5878C50.926 92.2678 50.474 92.1078 49.898 92.1078ZM56.7179 97.6398C56.1099 97.6398 55.5779 97.5278 55.1219 97.3038C54.6659 97.0718 54.3139 96.7518 54.0659 96.3438C53.8179 95.9278 53.6939 95.4438 53.6939 94.8918C53.6939 94.1798 53.8539 93.5398 54.1739 92.9718C54.4939 92.4038 54.9379 91.9598 55.5059 91.6398C56.0739 91.3118 56.7179 91.1478 57.4379 91.1478C58.6939 91.1478 59.5659 91.6078 60.0539 92.5278L59.0819 93.0678C58.7459 92.4598 58.1699 92.1558 57.3539 92.1558C56.8819 92.1558 56.4539 92.2718 56.0699 92.5038C55.6939 92.7278 55.3979 93.0438 55.1819 93.4518C54.9659 93.8598 54.8579 94.3238 54.8579 94.8438C54.8579 95.4038 55.0219 95.8438 55.3499 96.1638C55.6859 96.4758 56.1579 96.6318 56.7659 96.6318C57.1499 96.6318 57.5059 96.5558 57.8339 96.4038C58.1699 96.2518 58.4459 96.0278 58.6619 95.7318L59.5019 96.3318C59.2059 96.7398 58.8099 97.0598 58.3139 97.2918C57.8179 97.5238 57.2859 97.6398 56.7179 97.6398ZM62.3474 95.5398C62.3234 95.6598 62.3114 95.7718 62.3114 95.8758C62.3114 96.1318 62.3794 96.3278 62.5154 96.4638C62.6594 96.5998 62.8714 96.6678 63.1514 96.6678C63.4874 96.6678 63.7914 96.5678 64.0634 96.3678L64.3034 97.2438C63.9194 97.5078 63.4274 97.6398 62.8274 97.6398C62.3234 97.6398 61.9154 97.4998 61.6034 97.2198C61.2994 96.9318 61.1474 96.5398 61.1474 96.0438C61.1474 95.8758 61.1634 95.7158 61.1954 95.5638L61.8794 92.1558H60.7994L60.9794 91.2078H62.0714L62.3474 89.8158H63.4994L63.2234 91.2078H65.0474L64.8554 92.1558H63.0314L62.3474 95.5398ZM31.1652 110.664C30.3332 110.664 29.6172 110.516 29.0172 110.22C28.4172 109.924 27.9572 109.512 27.6372 108.984C27.3172 108.448 27.1572 107.828 27.1572 107.124C27.1572 106.188 27.3692 105.336 27.7932 104.568C28.2172 103.8 28.8172 103.192 29.5932 102.744C30.3772 102.296 31.2812 102.072 32.3052 102.072C33.0012 102.072 33.6172 102.188 34.1532 102.42C34.6892 102.644 35.1012 102.964 35.3892 103.38L34.5252 104.124C34.0212 103.468 33.2532 103.14 32.2212 103.14C31.4452 103.14 30.7652 103.316 30.1812 103.668C29.5972 104.02 29.1452 104.496 28.8252 105.096C28.5132 105.688 28.3572 106.34 28.3572 107.052C28.3572 107.828 28.6052 108.448 29.1012 108.912C29.6052 109.368 30.3212 109.596 31.2492 109.596C32.2812 109.596 33.1292 109.264 33.7932 108.6L34.4892 109.392C34.1052 109.808 33.6252 110.124 33.0492 110.34C32.4812 110.556 31.8532 110.664 31.1652 110.664ZM38.2835 110.64C37.6835 110.64 37.1595 110.528 36.7115 110.304C36.2635 110.072 35.9155 109.748 35.6675 109.332C35.4195 108.916 35.2955 108.436 35.2955 107.892C35.2955 107.18 35.4555 106.54 35.7755 105.972C36.0955 105.404 36.5395 104.96 37.1075 104.64C37.6755 104.312 38.3155 104.148 39.0275 104.148C39.6275 104.148 40.1515 104.26 40.5995 104.484C41.0475 104.708 41.3915 105.028 41.6315 105.444C41.8795 105.852 42.0035 106.332 42.0035 106.884C42.0035 107.596 41.8435 108.24 41.5235 108.816C41.2035 109.384 40.7595 109.832 40.1915 110.16C39.6315 110.48 38.9955 110.64 38.2835 110.64ZM38.3555 109.632C38.8275 109.632 39.2515 109.52 39.6275 109.296C40.0115 109.064 40.3075 108.744 40.5155 108.336C40.7315 107.928 40.8395 107.464 40.8395 106.944C40.8395 106.376 40.6755 105.936 40.3475 105.624C40.0195 105.312 39.5515 105.156 38.9435 105.156C38.4715 105.156 38.0475 105.272 37.6715 105.504C37.2955 105.728 36.9995 106.044 36.7835 106.452C36.5675 106.86 36.4595 107.324 36.4595 107.844C36.4595 108.404 36.6235 108.844 36.9515 109.164C37.2875 109.476 37.7555 109.632 38.3555 109.632ZM44.7007 101.664H45.8527L44.0767 110.568H42.9247L44.7007 101.664ZM49.2522 110.64C48.6522 110.64 48.1282 110.528 47.6802 110.304C47.2322 110.072 46.8842 109.748 46.6362 109.332C46.3882 108.916 46.2642 108.436 46.2642 107.892C46.2642 107.18 46.4242 106.54 46.7442 105.972C47.0642 105.404 47.5082 104.96 48.0762 104.64C48.6442 104.312 49.2842 104.148 49.9962 104.148C50.5962 104.148 51.1202 104.26 51.5682 104.484C52.0162 104.708 52.3602 105.028 52.6002 105.444C52.8482 105.852 52.9722 106.332 52.9722 106.884C52.9722 107.596 52.8122 108.24 52.4922 108.816C52.1722 109.384 51.7282 109.832 51.1602 110.16C50.6002 110.48 49.9642 110.64 49.2522 110.64ZM49.3242 109.632C49.7962 109.632 50.2202 109.52 50.5962 109.296C50.9802 109.064 51.2762 108.744 51.4842 108.336C51.7002 107.928 51.8082 107.464 51.8082 106.944C51.8082 106.376 51.6442 105.936 51.3162 105.624C50.9882 105.312 50.5202 105.156 49.9122 105.156C49.4402 105.156 49.0162 105.272 48.6402 105.504C48.2642 105.728 47.9682 106.044 47.7522 106.452C47.5362 106.86 47.4282 107.324 47.4282 107.844C47.4282 108.404 47.5922 108.844 47.9202 109.164C48.2562 109.476 48.7242 109.632 49.3242 109.632ZM61.0814 104.208L59.8214 110.568H58.7174L58.8734 109.752C58.5854 110.048 58.2454 110.272 57.8534 110.424C57.4694 110.568 57.0494 110.64 56.5934 110.64C55.8894 110.64 55.3334 110.452 54.9254 110.076C54.5174 109.7 54.3134 109.176 54.3134 108.504C54.3134 108.28 54.3374 108.036 54.3854 107.772L55.0934 104.208H56.2454L55.5374 107.784C55.4974 108 55.4774 108.18 55.4774 108.324C55.4774 108.74 55.5974 109.06 55.8374 109.284C56.0854 109.5 56.4494 109.608 56.9294 109.608C57.5374 109.608 58.0414 109.436 58.4414 109.092C58.8494 108.748 59.1214 108.244 59.2574 107.58L59.9294 104.208H61.0814ZM64.1985 105.156C64.4785 104.804 64.8225 104.548 65.2305 104.388C65.6385 104.228 66.1345 104.148 66.7185 104.148L66.5025 105.264C66.4305 105.256 66.3305 105.252 66.2025 105.252C64.8825 105.252 64.0825 105.964 63.8025 107.388L63.1665 110.568H62.0145L63.2745 104.208H64.3785L64.1985 105.156Z" fill="#EBECF0"/>
</g>
</g>
<path class="select-color-input" fill-rule="evenodd" clip-rule="evenodd" d="M47 141.835C70.3616 141.835 89.3 123.244 89.3 100.311C89.3 77.3781 70.3616 58.7874 47 58.7874C23.6384 58.7874 4.7 77.3781 4.7 100.311C4.7 123.244 23.6384 141.835 47 141.835ZM47 146.448C72.9574 146.448 94 125.792 94 100.311C94 74.83 72.9574 54.1737 47 54.1737C21.0426 54.1737 0 74.83 0 100.311C0 125.792 21.0426 146.448 47 146.448Z" fill="#222629"/>
<path class="select-color-input" fill-rule="evenodd" clip-rule="evenodd" d="M46.9999 83.0471C43.1063 83.0471 39.95 79.9487 39.95 76.1266L39.95 6.9206C39.95 3.09846 43.1063 0 46.9999 0C50.8936 0 54.0499 3.09846 54.0499 6.9206L54.0499 76.1266C54.0499 79.9487 50.8936 83.0471 46.9999 83.0471Z" fill="#222629"/>
<defs>
<filter id="filter0_ii" x="-10" y="44.1737" width="114" height="112.275" filterUnits="userSpaceOnUse" color-interpolation-filters="sRGB">
<feFlood flood-opacity="0" result="BackgroundImageFix"/>
<feBlend mode="normal" in="SourceGraphic" in2="BackgroundImageFix" result="shape"/>
<feColorMatrix in="SourceAlpha" type="matrix" values="0 0 0 0 0 0 0 0 0 0 0 0 0 0 0 0 0 0 127 0" result="hardAlpha"/>
<feOffset dx="-10" dy="-10"/>
<feGaussianBlur stdDeviation="12.5"/>
<feComposite in2="hardAlpha" operator="arithmetic" k2="-1" k3="1"/>
<feColorMatrix type="matrix" values="0 0 0 0 0 0 0 0 0 0 0 0 0 0 0 0 0 0 0.25 0"/>
<feBlend mode="normal" in2="shape" result="effect1_innerShadow"/>
<feColorMatrix in="SourceAlpha" type="matrix" values="0 0 0 0 0 0 0 0 0 0 0 0 0 0 0 0 0 0 127 0" result="hardAlpha"/>
<feOffset dx="10" dy="10"/>
<feGaussianBlur stdDeviation="12.5"/>
<feComposite in2="hardAlpha" operator="arithmetic" k2="-1" k3="1"/>
<feColorMatrix type="matrix" values="0 0 0 0 1 0 0 0 0 1 0 0 0 0 1 0 0 0 0.25 0"/>
<feBlend mode="normal" in2="effect1_innerShadow" result="effect2_innerShadow"/>
</filter>
</defs>
</svg>
