<svg viewBox="0 0 152 177">
<g filter="url(#filter0_ddii)">
<path class="select-color-input" id="tankColor" d="M124 100.311C124 125.792 102.957 146.448 77 146.448C51.0426 146.448 30 125.792 30 100.311C30 74.83 51.0426 54.1737 77 54.1737C102.957 54.1737 124 74.83 124 100.311Z" fill="#BA0606"/>
<g style="mix-blend-mode:difference">
<path class="select-color-input" d="M60.9774 97.6638C60.3534 97.6638 59.7494 97.5678 59.1654 97.3758C58.5894 97.1838 58.1454 96.9398 57.8334 96.6438L58.3614 95.6838C58.6814 95.9798 59.0854 96.2158 59.5734 96.3918C60.0614 96.5598 60.5654 96.6438 61.0854 96.6438C61.7734 96.6438 62.3214 96.5198 62.7294 96.2718C63.1454 96.0158 63.3534 95.6638 63.3534 95.2158C63.3534 94.9758 63.2734 94.7758 63.1134 94.6158C62.9534 94.4558 62.7574 94.3278 62.5254 94.2318C62.2934 94.1358 61.9654 94.0238 61.5414 93.8958C61.0054 93.7358 60.5734 93.5838 60.2454 93.4398C59.9174 93.2958 59.6334 93.0838 59.3934 92.8038C59.1614 92.5158 59.0454 92.1398 59.0454 91.6758C59.0454 91.1478 59.1934 90.6878 59.4894 90.2958C59.7854 89.9038 60.1974 89.6038 60.7254 89.3958C61.2534 89.1798 61.8574 89.0718 62.5374 89.0718C63.0574 89.0718 63.5494 89.1358 64.0134 89.2638C64.4854 89.3838 64.8934 89.5558 65.2374 89.7798L64.7574 90.7638C64.4454 90.5398 64.0934 90.3718 63.7014 90.2598C63.3174 90.1478 62.9094 90.0918 62.4774 90.0918C61.7894 90.0918 61.2414 90.2278 60.8334 90.4998C60.4254 90.7638 60.2214 91.1198 60.2214 91.5678C60.2214 91.8158 60.3014 92.0238 60.4614 92.1918C60.6294 92.3598 60.8334 92.4918 61.0734 92.5878C61.3214 92.6838 61.6574 92.7958 62.0814 92.9238C62.6094 93.0838 63.0334 93.2358 63.3534 93.3798C63.6814 93.5158 63.9574 93.7198 64.1814 93.9918C64.4134 94.2638 64.5294 94.6158 64.5294 95.0478C64.5294 95.5838 64.3774 96.0478 64.0734 96.4398C63.7774 96.8318 63.3614 97.1358 62.8254 97.3518C62.2894 97.5598 61.6734 97.6638 60.9774 97.6638ZM66.7985 94.7478V94.8198C66.7985 95.4118 66.9665 95.8638 67.3025 96.1758C67.6385 96.4798 68.1425 96.6318 68.8145 96.6318C69.2065 96.6318 69.5745 96.5678 69.9185 96.4398C70.2625 96.3038 70.5505 96.1238 70.7825 95.8998L71.2745 96.7278C70.9625 97.0158 70.5825 97.2398 70.1345 97.3998C69.6865 97.5598 69.2145 97.6398 68.7185 97.6398C68.0945 97.6398 67.5545 97.5278 67.0985 97.3038C66.6425 97.0798 66.2905 96.7598 66.0425 96.3438C65.7945 95.9278 65.6705 95.4398 65.6705 94.8798C65.6705 94.1678 65.8225 93.5278 66.1265 92.9598C66.4385 92.3918 66.8665 91.9478 67.4105 91.6278C67.9625 91.3078 68.5785 91.1478 69.2585 91.1478C70.1225 91.1478 70.8105 91.3958 71.3225 91.8918C71.8425 92.3798 72.1025 93.0478 72.1025 93.8958C72.1025 94.1518 72.0745 94.4358 72.0185 94.7478H66.7985ZM69.2105 92.1078C68.6425 92.1078 68.1545 92.2678 67.7465 92.5878C67.3385 92.9078 67.0625 93.3478 66.9185 93.9078H71.0225C71.0545 93.3398 70.9025 92.8998 70.5665 92.5878C70.2385 92.2678 69.7865 92.1078 69.2105 92.1078ZM74.7944 88.6638H75.9464L74.1704 97.5678H73.0184L74.7944 88.6638ZM77.486 94.7478V94.8198C77.486 95.4118 77.654 95.8638 77.99 96.1758C78.326 96.4798 78.83 96.6318 79.502 96.6318C79.894 96.6318 80.262 96.5678 80.606 96.4398C80.95 96.3038 81.238 96.1238 81.47 95.8998L81.962 96.7278C81.65 97.0158 81.27 97.2398 80.822 97.3998C80.374 97.5598 79.902 97.6398 79.406 97.6398C78.782 97.6398 78.242 97.5278 77.786 97.3038C77.33 97.0798 76.978 96.7598 76.73 96.3438C76.482 95.9278 76.358 95.4398 76.358 94.8798C76.358 94.1678 76.51 93.5278 76.814 92.9598C77.126 92.3918 77.554 91.9478 78.098 91.6278C78.65 91.3078 79.266 91.1478 79.946 91.1478C80.81 91.1478 81.498 91.3958 82.01 91.8918C82.53 92.3798 82.79 93.0478 82.79 93.8958C82.79 94.1518 82.762 94.4358 82.706 94.7478H77.486ZM79.898 92.1078C79.33 92.1078 78.842 92.2678 78.434 92.5878C78.026 92.9078 77.75 93.3478 77.606 93.9078H81.71C81.742 93.3398 81.59 92.8998 81.254 92.5878C80.926 92.2678 80.474 92.1078 79.898 92.1078ZM86.7179 97.6398C86.1099 97.6398 85.5779 97.5278 85.1219 97.3038C84.6659 97.0718 84.3139 96.7518 84.0659 96.3438C83.8179 95.9278 83.6939 95.4438 83.6939 94.8918C83.6939 94.1798 83.8539 93.5398 84.1739 92.9718C84.4939 92.4038 84.9379 91.9598 85.5059 91.6398C86.0739 91.3118 86.7179 91.1478 87.4379 91.1478C88.6939 91.1478 89.5659 91.6078 90.0539 92.5278L89.0819 93.0678C88.7459 92.4598 88.1699 92.1558 87.3539 92.1558C86.8819 92.1558 86.4539 92.2718 86.0699 92.5038C85.6939 92.7278 85.3979 93.0438 85.1819 93.4518C84.9659 93.8598 84.8579 94.3238 84.8579 94.8438C84.8579 95.4038 85.0219 95.8438 85.3499 96.1638C85.6859 96.4758 86.1579 96.6318 86.7659 96.6318C87.1499 96.6318 87.5059 96.5558 87.8339 96.4038C88.1699 96.2518 88.4459 96.0278 88.6619 95.7318L89.5019 96.3318C89.2059 96.7398 88.8099 97.0598 88.3139 97.2918C87.8179 97.5238 87.2859 97.6398 86.7179 97.6398ZM92.3474 95.5398C92.3234 95.6598 92.3114 95.7718 92.3114 95.8758C92.3114 96.1318 92.3794 96.3278 92.5154 96.4638C92.6594 96.5998 92.8714 96.6678 93.1514 96.6678C93.4874 96.6678 93.7914 96.5678 94.0634 96.3678L94.3034 97.2438C93.9194 97.5078 93.4274 97.6398 92.8274 97.6398C92.3234 97.6398 91.9154 97.4998 91.6034 97.2198C91.2994 96.9318 91.1474 96.5398 91.1474 96.0438C91.1474 95.8758 91.1634 95.7158 91.1954 95.5638L91.8794 92.1558H90.7994L90.9794 91.2078H92.0714L92.3474 89.8158H93.4994L93.2234 91.2078H95.0474L94.8554 92.1558H93.0314L92.3474 95.5398ZM61.1652 110.664C60.3332 110.664 59.6172 110.516 59.0172 110.22C58.4172 109.924 57.9572 109.512 57.6372 108.984C57.3172 108.448 57.1572 107.828 57.1572 107.124C57.1572 106.188 57.3692 105.336 57.7932 104.568C58.2172 103.8 58.8172 103.192 59.5932 102.744C60.3772 102.296 61.2812 102.072 62.3052 102.072C63.0012 102.072 63.6172 102.188 64.1532 102.42C64.6892 102.644 65.1012 102.964 65.3892 103.38L64.5252 104.124C64.0212 103.468 63.2532 103.14 62.2212 103.14C61.4452 103.14 60.7652 103.316 60.1812 103.668C59.5972 104.02 59.1452 104.496 58.8252 105.096C58.5132 105.688 58.3572 106.34 58.3572 107.052C58.3572 107.828 58.6052 108.448 59.1012 108.912C59.6052 109.368 60.3212 109.596 61.2492 109.596C62.2812 109.596 63.1292 109.264 63.7932 108.6L64.4892 109.392C64.1052 109.808 63.6252 110.124 63.0492 110.34C62.4812 110.556 61.8532 110.664 61.1652 110.664ZM68.2835 110.64C67.6835 110.64 67.1595 110.528 66.7115 110.304C66.2635 110.072 65.9155 109.748 65.6675 109.332C65.4195 108.916 65.2955 108.436 65.2955 107.892C65.2955 107.18 65.4555 106.54 65.7755 105.972C66.0955 105.404 66.5395 104.96 67.1075 104.64C67.6755 104.312 68.3155 104.148 69.0275 104.148C69.6275 104.148 70.1515 104.26 70.5995 104.484C71.0475 104.708 71.3915 105.028 71.6315 105.444C71.8795 105.852 72.0035 106.332 72.0035 106.884C72.0035 107.596 71.8435 108.24 71.5235 108.816C71.2035 109.384 70.7595 109.832 70.1915 110.16C69.6315 110.48 68.9955 110.64 68.2835 110.64ZM68.3555 109.632C68.8275 109.632 69.2515 109.52 69.6275 109.296C70.0115 109.064 70.3075 108.744 70.5155 108.336C70.7315 107.928 70.8395 107.464 70.8395 106.944C70.8395 106.376 70.6755 105.936 70.3475 105.624C70.0195 105.312 69.5515 105.156 68.9435 105.156C68.4715 105.156 68.0475 105.272 67.6715 105.504C67.2955 105.728 66.9995 106.044 66.7835 106.452C66.5675 106.86 66.4595 107.324 66.4595 107.844C66.4595 108.404 66.6235 108.844 66.9515 109.164C67.2875 109.476 67.7555 109.632 68.3555 109.632ZM74.7007 101.664H75.8527L74.0767 110.568H72.9247L74.7007 101.664ZM79.2522 110.64C78.6522 110.64 78.1282 110.528 77.6802 110.304C77.2322 110.072 76.8842 109.748 76.6362 109.332C76.3882 108.916 76.2642 108.436 76.2642 107.892C76.2642 107.18 76.4242 106.54 76.7442 105.972C77.0642 105.404 77.5082 104.96 78.0762 104.64C78.6442 104.312 79.2842 104.148 79.9962 104.148C80.5962 104.148 81.1202 104.26 81.5682 104.484C82.0162 104.708 82.3602 105.028 82.6002 105.444C82.8482 105.852 82.9722 106.332 82.9722 106.884C82.9722 107.596 82.8122 108.24 82.4922 108.816C82.1722 109.384 81.7282 109.832 81.1602 110.16C80.6002 110.48 79.9642 110.64 79.2522 110.64ZM79.3242 109.632C79.7962 109.632 80.2202 109.52 80.5962 109.296C80.9802 109.064 81.2762 108.744 81.4842 108.336C81.7002 107.928 81.8082 107.464 81.8082 106.944C81.8082 106.376 81.6442 105.936 81.3162 105.624C80.9882 105.312 80.5202 105.156 79.9122 105.156C79.4402 105.156 79.0162 105.272 78.6402 105.504C78.2642 105.728 77.9682 106.044 77.7522 106.452C77.5362 106.86 77.4282 107.324 77.4282 107.844C77.4282 108.404 77.5922 108.844 77.9202 109.164C78.2562 109.476 78.7242 109.632 79.3242 109.632ZM91.0814 104.208L89.8214 110.568H88.7174L88.8734 109.752C88.5854 110.048 88.2454 110.272 87.8534 110.424C87.4694 110.568 87.0494 110.64 86.5934 110.64C85.8894 110.64 85.3334 110.452 84.9254 110.076C84.5174 109.7 84.3134 109.176 84.3134 108.504C84.3134 108.28 84.3374 108.036 84.3854 107.772L85.0934 104.208H86.2454L85.5374 107.784C85.4974 108 85.4774 108.18 85.4774 108.324C85.4774 108.74 85.5974 109.06 85.8374 109.284C86.0854 109.5 86.4494 109.608 86.9294 109.608C87.5374 109.608 88.0414 109.436 88.4414 109.092C88.8494 108.748 89.1214 108.244 89.2574 107.58L89.9294 104.208H91.0814ZM94.1985 105.156C94.4785 104.804 94.8225 104.548 95.2305 104.388C95.6385 104.228 96.1345 104.148 96.7185 104.148L96.5025 105.264C96.4305 105.256 96.3305 105.252 96.2025 105.252C94.8825 105.252 94.0825 105.964 93.8025 107.388L93.1665 110.568H92.0145L93.2745 104.208H94.3785L94.1985 105.156Z" fill="#EBECF0"/>
</g>
</g>
<path class="select-color-input" fill-rule="evenodd" clip-rule="evenodd" d="M77 141.835C100.362 141.835 119.3 123.244 119.3 100.311C119.3 77.3781 100.362 58.7874 77 58.7874C53.6384 58.7874 34.7 77.3781 34.7 100.311C34.7 123.244 53.6384 141.835 77 141.835ZM77 146.448C102.957 146.448 124 125.792 124 100.311C124 74.83 102.957 54.1737 77 54.1737C51.0426 54.1737 30 74.83 30 100.311C30 125.792 51.0426 146.448 77 146.448Z" fill="#222629"/>
<path class="select-color-input" fill-rule="evenodd" clip-rule="evenodd" d="M76.9999 83.0471C73.1063 83.0471 69.95 79.9487 69.95 76.1266V6.9206C69.95 3.09846 73.1063 0 76.9999 0C80.8936 0 84.0499 3.09846 84.0499 6.9206V76.1266C84.0499 79.9487 80.8936 83.0471 76.9999 83.0471Z" fill="#222629"/>
<defs>
<filter id="filter0_ddii" x="0" y="24.1737" filterUnits="userSpaceOnUse" color-interpolation-filters="sRGB">
<feFlood flood-opacity="0" result="BackgroundImageFix"/>
<feColorMatrix in="SourceAlpha" type="matrix" values="0 0 0 0 0 0 0 0 0 0 0 0 0 0 0 0 0 0 127 0"/>
<feOffset dx="10" dy="10"/>
<feGaussianBlur stdDeviation="10"/>
<feColorMatrix type="matrix" values="0 0 0 0 0.606458 0 0 0 0 0.621833 0 0 0 0 0.683333 0 0 0 1 0"/>
<feBlend mode="normal" in2="BackgroundImageFix" result="effect1_dropShadow"/>
<feColorMatrix in="SourceAlpha" type="matrix" values="0 0 0 0 0 0 0 0 0 0 0 0 0 0 0 0 0 0 127 0"/>
<feOffset dx="-10" dy="-10"/>
<feGaussianBlur stdDeviation="10"/>
<feColorMatrix type="matrix" values="0 0 0 0 0.979167 0 0 0 0 0.983333 0 0 0 0 1 0 0 0 1 0"/>
<feBlend mode="normal" in2="effect1_dropShadow" result="effect2_dropShadow"/>
<feBlend mode="normal" in="SourceGraphic" in2="effect2_dropShadow" result="shape"/>
<feColorMatrix in="SourceAlpha" type="matrix" values="0 0 0 0 0 0 0 0 0 0 0 0 0 0 0 0 0 0 127 0" result="hardAlpha"/>
<feOffset dx="-10" dy="-10"/>
<feGaussianBlur stdDeviation="12.5"/>
<feComposite in2="hardAlpha" operator="arithmetic" k2="-1" k3="1"/>
<feColorMatrix type="matrix" values="0 0 0 0 0 0 0 0 0 0 0 0 0 0 0 0 0 0 0.25 0"/>
<feBlend mode="normal" in2="shape" result="effect3_innerShadow"/>
<feColorMatrix in="SourceAlpha" type="matrix" values="0 0 0 0 0 0 0 0 0 0 0 0 0 0 0 0 0 0 127 0" result="hardAlpha"/>
<feOffset dx="10" dy="10"/>
<feGaussianBlur stdDeviation="12.5"/>
<feComposite in2="hardAlpha" operator="arithmetic" k2="-1" k3="1"/>
<feColorMatrix type="matrix" values="0 0 0 0 1 0 0 0 0 1 0 0 0 0 1 0 0 0 0.25 0"/>
<feBlend mode="normal" in2="effect3_innerShadow" result="effect4_innerShadow"/>
</filter>
</defs>
</svg>
