<svg width="40" height="74" viewBox="0 0 40 74" fill="none" xmlns="http://www.w3.org/2000/svg">
<path d="M34.1176 0L29.4117 4V60L30.5882 61H35.2941L40 60V1L38.8235 0H34.1176Z" fill="#909090"/>
<path d="M5.88237 0L10.5883 4V60L9.41179 61H4.7059L2.19345e-05 60V1L1.17649 0H5.88237Z" fill="#909090"/>
<path fill-rule="evenodd" clip-rule="evenodd" d="M4.70593 1V56H9.41182L10.5883 57V60H19.4118H20.5883H29.4118V57L30.5883 56H35.2942V1H20.5883H19.4118H4.70593Z" fill="#C4C4C4"/>
<path fill-rule="evenodd" clip-rule="evenodd" d="M16.4706 44L18 47V49L18.5 50V72L18 73V74H20H22V73L21.5 72V50L22 49V47L23.5294 44H20H16.4706Z" fill="#2F2F2F"/>
<path fill-rule="evenodd" clip-rule="evenodd" d="M20 12H12.9411C12.9411 12 5.88232 24 5.88232 25V32C5.88232 33 11.7647 43 11.7647 43L12.9411 44H20H27.0588L28.2353 43C28.2353 43 34.1176 33 34.1176 32V25C34.1176 24 27.0588 12 27.0588 12H20Z" fill="#4D4D4D"/>
</svg>
