<svg width="42" height="76" viewBox="0 0 42 76" fill="none" xmlns="http://www.w3.org/2000/svg">
<path d="M30.5 61H22.5H19.5H11.5L10.5 62H5.5L1 61V2L2 1H7L8 2H34L35 1H40L41 2V61L36.5 62H31.5L30.5 61Z" stroke="black" stroke-width="2" stroke-linejoin="round"/>
<path d="M35.1176 1L30.4117 5V61L31.5882 62H36.2941L41 61V2L39.8235 1H35.1176Z" fill="#909090"/>
<path d="M6.88237 1L11.5883 5V61L10.4118 62H5.7059L1.00002 61V2L2.17649 1H6.88237Z" fill="#909090"/>
<path fill-rule="evenodd" clip-rule="evenodd" d="M5.70593 2V57H10.4118L11.5883 58V61H20.4118H21.5883H30.4118V58L31.5883 57H36.2942V2H21.5883H20.4118H5.70593Z" fill="#C4C4C4"/>
<path d="M28 13H14C14 13 7.00003 25 7.00001 25.5L7 33C7.00001 34 12.5 44 12.5 44L14 45H17.5L19 48V50L19.5 51V73L19 74V75H23V74L22.5 73V51L23 50V48L24.5 45H28L29.5 44C29.5 44 35 34 35 33V25.5C35 25 28 13 28 13Z" stroke="black" stroke-linejoin="round"/>
<path fill-rule="evenodd" clip-rule="evenodd" d="M17.4706 45L19 48V50L19.5 51V73L19 74V75H21H23V74L22.5 73V51L23 50V48L24.5294 45H21H17.4706Z" fill="#2F2F2F"/>
<path fill-rule="evenodd" clip-rule="evenodd" d="M21 13H13.9411C13.9411 13 6.88232 25 6.88232 26V33C6.88232 34 12.7647 44 12.7647 44L13.9411 45H21H28.0588L29.2353 44C29.2353 44 35.1176 34 35.1176 33V26C35.1176 25 28.0588 13 28.0588 13H21Z" fill="#4D4D4D"/>
</svg>
