<svg width="40" height="74" viewBox="0 0 40 74" fill="none" xmlns="http://www.w3.org/2000/svg">
<rect x="1.5" y="1.5" width="37" height="57" rx="1.5" fill="#C4C4C4" stroke="#282828" stroke-width="3"/>
<path fill-rule="evenodd" clip-rule="evenodd" d="M22 43.8582C28.7846 42.8878 34 37.0529 34 30C34 22.268 27.732 16 20 16C12.268 16 6 22.268 6 30C6 37.0529 11.2154 42.8878 18 43.8582V72C18 72.5523 18.4477 73 19 73H21C21.5523 73 22 72.5523 22 72V43.8582Z" fill="#9D8989"/>
<path d="M22 43.8582L21.8584 42.8683L21 42.9911V43.8582H22ZM18 43.8582H19V42.9911L18.1416 42.8683L18 43.8582ZM33 30C33 36.5483 28.1574 41.9673 21.8584 42.8683L22.1416 44.8481C29.4117 43.8082 35 37.5576 35 30H33ZM20 17C27.1797 17 33 22.8203 33 30H35C35 21.7157 28.2843 15 20 15V17ZM7 30C7 22.8203 12.8203 17 20 17V15C11.7157 15 5 21.7157 5 30H7ZM18.1416 42.8683C11.8426 41.9673 7 36.5483 7 30H5C5 37.5576 10.5883 43.8082 17.8584 44.8481L18.1416 42.8683ZM19 72V43.8582H17V72H19ZM19 72H17C17 73.1046 17.8954 74 19 74V72ZM21 72H19V74H21V72ZM21 72V74C22.1046 74 23 73.1046 23 72H21ZM21 43.8582V72H23V43.8582H21Z" fill="#282828"/>
</svg>
