<svg width="30" height="30" viewBox="0 0 30 30" fill="none" xmlns="http://www.w3.org/2000/svg">
<rect x="0.5" y="0.5" width="29" height="29" rx="2.5" fill="url(#paint0_linear)" stroke="black"/>
<path d="M24.3282 6.94708C24.4357 6.63138 24.6046 6.39461 24.8349 6.23677C25.0806 6.07892 25.3493 6 25.6411 6C26.0096 6 26.3244 6.11838 26.5854 6.35515C26.8618 6.59192 27 6.90761 27 7.30223C27 7.44429 26.9616 7.64949 26.8848 7.91783L21.9328 22.0056C21.81 22.3213 21.6027 22.5659 21.3109 22.7396C21.0345 22.9132 20.7274 23 20.3896 23C20.0518 23 19.737 22.9132 19.4453 22.7396C19.1535 22.5659 18.9539 22.3213 18.8464 22.0056L15.023 10.8538L11.1305 22.0056C11.0077 22.3213 10.8004 22.5659 10.5086 22.7396C10.2322 22.9132 9.92514 23 9.58733 23C9.24952 23 8.93474 22.9132 8.64299 22.7396C8.3666 22.5659 8.17466 22.3213 8.06718 22.0056L3.11516 7.91783C3.03839 7.68106 3 7.47586 3 7.30223C3 6.90761 3.1382 6.59192 3.41459 6.35515C3.70633 6.11838 4.04415 6 4.42802 6C4.73512 6 5.01152 6.07892 5.2572 6.23677C5.50288 6.39461 5.67946 6.63138 5.78695 6.94708L9.70249 18.5251L13.7332 7.01811C13.8407 6.70241 14.0173 6.45775 14.263 6.28412C14.5086 6.09471 14.7774 6 15.0691 6C15.3608 6 15.6296 6.09471 15.8752 6.28412C16.1363 6.45775 16.3205 6.71031 16.428 7.04178L20.3436 18.6671L24.3282 6.94708Z" fill="white"/>
<defs>
<linearGradient id="paint0_linear" x1="0" y1="0" x2="30" y2="30" gradientUnits="userSpaceOnUse">
<stop stop-color="#6F0202"/>
<stop offset="1" stop-color="#E80101"/>
</linearGradient>
</defs>
</svg>
